<svg width="40" height="40" viewBox="0 0 40 40" fill="none" xmlns="http://www.w3.org/2000/svg">
<mask id="mask0_5301_926" style="mask-type:luminance" maskUnits="userSpaceOnUse" x="0" y="0" width="40" height="40">
<path d="M0 -3.8147e-06H40V40H0V-3.8147e-06Z" fill="white"/>
</mask>
<g mask="url(#mask0_5301_926)">
<path d="M13.6243 28.3236L8.89391 23.5932C7.97789 22.6772 7.97789 21.192 8.89391 20.2759C9.80992 19.36 11.2951 19.36 12.2111 20.2759L20 28.0648V38.8281H10.1273V35.3125L3.51562 25.8862V14.1369C3.51562 12.8414 4.56578 11.7912 5.86125 11.7912C7.15672 11.7912 8.20688 12.8414 8.20688 14.1369V21.9329" stroke="white" stroke-width="2" stroke-miterlimit="10"/>
<path d="M26.3757 28.3236L31.1061 23.5932C32.0221 22.6772 32.0221 21.192 31.1061 20.2759C30.1901 19.36 28.7049 19.36 27.7889 20.2759L20 28.0648V38.8281H29.8727V35.3125L36.4844 25.8862V14.1369C36.4844 12.8414 35.4342 11.7912 34.1388 11.7912C32.8433 11.7912 31.7931 12.8414 31.7931 14.1369V21.9329" stroke="white" stroke-width="2" stroke-miterlimit="10"/>
<path d="M24.2148 4.73047C24.2148 2.76516 25.808 1.17187 27.7734 1.17187C29.7388 1.17187 31.332 2.76516 31.332 4.73047C31.332 6.69578 29.7388 8.28906 27.7734 8.28906C25.808 8.28906 24.2148 6.69578 24.2148 4.73047Z" stroke="white" stroke-width="2" stroke-miterlimit="10"/>
<path d="M15.7851 4.73047C15.7851 2.76516 14.1919 1.17187 12.2265 1.17187C10.2612 1.17187 8.66797 2.76516 8.66797 4.73047C8.66797 6.69578 10.2612 8.28906 12.2265 8.28906C14.1919 8.28906 15.7851 6.69578 15.7851 4.73047Z" stroke="white" stroke-width="2" stroke-miterlimit="10"/>
<path d="M23.5586 13.9062C23.5586 11.9409 21.9653 10.3477 20 10.3477C18.0347 10.3477 16.4414 11.9409 16.4414 13.9062C16.4414 15.8716 18.0347 17.4648 20 17.4648C21.9653 17.4648 23.5586 15.8716 23.5586 13.9062Z" stroke="white" stroke-width="2" stroke-miterlimit="10"/>
<path d="M22.3848 11.2659C23.5113 9.47742 25.5037 8.28914 27.7735 8.28914C30.2938 8.28914 32.4719 9.75406 33.5027 11.8789" stroke="white" stroke-width="2" stroke-miterlimit="10"/>
<path d="M17.616 11.2659C16.4895 9.47742 14.4971 8.28914 12.2273 8.28914C9.70703 8.28914 7.52891 9.75406 6.49805 11.8789" stroke="white" stroke-width="2" stroke-miterlimit="10"/>
<path d="M26.0916 21.9746C25.2955 19.3656 22.8693 17.4677 19.9998 17.4677C17.1304 17.4677 14.7043 19.3656 13.9082 21.9746" stroke="white" stroke-width="2" stroke-miterlimit="10"/>
</g>
</svg>
