<svg width="54" height="55" viewBox="0 0 54 55" fill="none" xmlns="http://www.w3.org/2000/svg">
<rect width="54" height="55" fill="#CBD527"/>
<path d="M38.5878 24.8477C37.3462 22.8229 36.1053 20.7976 34.8651 18.772C34.1718 17.6396 33.0311 17.0004 31.7033 17.0004H21.8305C20.5029 17.0004 19.3623 17.6395 18.6689 18.7716C17.4354 20.7859 16.2009 22.7996 14.9668 24.8135" stroke="#375CA1" stroke-width="1.5" stroke-miterlimit="22.926" stroke-linecap="round" stroke-linejoin="round"/>
<path d="M40.4222 35.4747V37.3828C40.4222 38.2025 39.7515 38.873 38.9319 38.873H36.166C35.3464 38.873 34.6758 38.2025 34.6758 37.3828V35.5364" stroke="#375CA1" stroke-width="1.5" stroke-miterlimit="22.926" stroke-linecap="round" stroke-linejoin="round"/>
<path d="M18.8577 35.4747V37.3828C18.8577 38.2025 18.1871 38.873 17.3675 38.873H14.6015C13.7819 38.873 13.1113 38.2025 13.1113 37.3828V35.4747" stroke="#375CA1" stroke-width="1.5" stroke-miterlimit="22.926" stroke-linecap="round" stroke-linejoin="round"/>
<path d="M15.8996 24.7851H37.6354C39.7833 24.7851 41.5352 26.4783 41.5352 28.5542V33.6209C41.5352 34.6419 40.6735 35.4746 39.6173 35.4746H13.9178C12.8615 35.4746 12 34.6419 12 33.6209V28.5542C12 26.4783 13.7517 24.7851 15.8996 24.7851Z" stroke="#375CA1" stroke-width="1.5" stroke-miterlimit="22.926" stroke-linecap="round" stroke-linejoin="round"/>
<path d="M13.8438 28.279C15.7078 28.4018 17.1903 29.9608 17.1903 31.8549V31.9785H12V30.0053C12 29.5089 12.1852 29.0817 12.5476 28.7424C12.91 28.4031 13.3485 28.2463 13.8438 28.279Z" stroke="#375CA1" stroke-width="1.5" stroke-miterlimit="22.926" stroke-linecap="round" stroke-linejoin="round"/>
<path d="M39.6921 28.279C37.8281 28.4018 36.3457 29.9608 36.3457 31.8549V31.9785H41.536V30.0053C41.536 29.5089 41.3507 29.0817 40.9883 28.7424C40.626 28.4031 40.1874 28.2463 39.6921 28.279Z" stroke="#375CA1" stroke-width="1.5" stroke-miterlimit="22.926" stroke-linecap="round" stroke-linejoin="round"/>
<path d="M19.5996 28.2465H33.9347C33.522 29.1419 33.1098 30.0378 32.6991 30.9341C32.3902 31.6084 31.7556 32.0156 31.0139 32.0156H22.5174C21.776 32.0156 21.1417 31.6087 20.8325 30.9348C20.4215 30.0387 20.0105 29.1426 19.5996 28.2465Z" stroke="#375CA1" stroke-width="1.5" stroke-miterlimit="22.926" stroke-linecap="round" stroke-linejoin="round"/>
</svg>
