<svg width="100" height="100" viewBox="0 0 100 100" fill="none" xmlns="http://www.w3.org/2000/svg">
<mask id="mask0_5301_926" style="mask-type:luminance" maskUnits="userSpaceOnUse" x="0" y="0" width="100" height="100">
<path d="M0 -7.62939e-06H100V100H0V-7.62939e-06Z" fill="white"/>
</mask>
<g mask="url(#mask0_5301_926)">
<path d="M34.0607 70.809L22.2348 58.983C19.9447 56.693 19.9447 52.9801 22.2348 50.6898C24.5248 48.4 28.2377 48.4 30.5277 50.6898L50 70.1621V97.0703H25.3184V88.2812L8.78906 64.7154V35.3422C8.78906 32.1035 11.4145 29.4781 14.6531 29.4781C17.8918 29.4781 20.5172 32.1035 20.5172 35.3422V54.8322" stroke="white" stroke-miterlimit="10"/>
<path d="M65.9393 70.809L77.7652 58.983C80.0553 56.693 80.0553 52.9801 77.7652 50.6898C75.4752 48.4 71.7623 48.4 69.4723 50.6898L50 70.1621V97.0703H74.6816V88.2812L91.2109 64.7154V35.3422C91.2109 32.1035 88.5855 29.4781 85.3469 29.4781C82.1082 29.4781 79.4828 32.1035 79.4828 35.3422V54.8322" stroke="white" stroke-miterlimit="10"/>
<path d="M60.5371 11.8262C60.5371 6.91289 64.5201 2.92969 69.4336 2.92969C74.3469 2.92969 78.3299 6.91289 78.3299 11.8262C78.3299 16.7395 74.3469 20.7227 69.4336 20.7227C64.5201 20.7227 60.5371 16.7395 60.5371 11.8262Z" stroke="white" stroke-miterlimit="10"/>
<path d="M39.4627 11.8262C39.4627 6.91289 35.4797 2.92969 30.5662 2.92969C25.6529 2.92969 21.6699 6.91289 21.6699 11.8262C21.6699 16.7395 25.6529 20.7227 30.5662 20.7227C35.4797 20.7227 39.4627 16.7395 39.4627 11.8262Z" stroke="white" stroke-miterlimit="10"/>
<path d="M58.8965 34.7656C58.8965 29.8523 54.9133 25.8691 50 25.8691C45.0867 25.8691 41.1035 29.8523 41.1035 34.7656C41.1035 39.6789 45.0867 43.6621 50 43.6621C54.9133 43.6621 58.8965 39.6789 58.8965 34.7656Z" stroke="white" stroke-miterlimit="10"/>
<path d="M55.9609 28.1646C58.7773 23.6936 63.7582 20.7228 69.4328 20.7228C75.7334 20.7228 81.1787 24.3852 83.7559 29.6973" stroke="white" stroke-miterlimit="10"/>
<path d="M44.041 28.1646C41.2246 23.6936 36.2438 20.7228 30.5691 20.7228C24.2686 20.7228 18.8232 24.3852 16.2461 29.6973" stroke="white" stroke-miterlimit="10"/>
<path d="M65.2279 54.9375C63.2377 48.415 57.1723 43.6703 49.9986 43.6703C42.825 43.6703 36.7598 48.415 34.7695 54.9375" stroke="white" stroke-miterlimit="10"/>
</g>
</svg>
