<svg width="39" height="40" viewBox="0 0 39 40" fill="none" xmlns="http://www.w3.org/2000/svg">
<mask id="mask0_5301_959" style="mask-type:luminance" maskUnits="userSpaceOnUse" x="0" y="0" width="39" height="40">
<path d="M38 39V1H1V39H38Z" fill="white" stroke="white" stroke-width="2"/>
</mask>
<g mask="url(#mask0_5301_959)">
<path d="M34.8989 10.8874C34.8797 10.4544 34.8689 10.0299 34.8628 9.61041C34.8397 8.01081 33.6127 6.70541 32.0554 6.6162C27.2924 6.3433 23.5675 4.71838 20.4211 1.57299C19.8946 1.07799 19.1049 1.07799 18.5784 1.57299C15.4321 4.71838 11.7071 6.3433 6.94418 6.6162C5.38684 6.70541 4.15987 8.01081 4.13671 9.61034C4.13069 10.0299 4.11988 10.4544 4.10068 10.8874C3.92564 20.3142 3.66323 33.2338 18.9508 38.7013C19.0239 38.7274 19.0991 38.7483 19.1749 38.7638L19.1757 38.764C19.3897 38.8078 19.6099 38.8078 19.8238 38.764C19.9002 38.7484 19.9759 38.7273 20.0494 38.701C35.2927 33.2335 35.0739 20.3589 34.8989 10.8874Z" stroke="white" stroke-width="2" stroke-miterlimit="10"/>
<path d="M28.0622 19.9993C28.0622 24.8495 24.2287 28.7812 19.4998 28.7812C14.771 28.7812 10.9375 24.8495 10.9375 19.9993C10.9375 15.1491 14.771 11.2173 19.4998 11.2173C24.2287 11.2173 28.0622 15.1491 28.0622 19.9993Z" stroke="white" stroke-width="2" stroke-miterlimit="10"/>
<path d="M23.0969 17.7375L17.7812 23.1895" stroke="white" stroke-width="2" stroke-miterlimit="10" stroke-linecap="round"/>
<path d="M15.75 21.106L17.7814 23.1895" stroke="white" stroke-width="2" stroke-miterlimit="10" stroke-linecap="round"/>
</g>
</svg>
