<svg width="23" height="30" viewBox="0 0 23 30" fill="none" xmlns="http://www.w3.org/2000/svg">
<path d="M11.5 0C5.15967 0 0 5.0825 0 11.3312C0 20.21 10.419 29.3775 10.8624 29.7625C11.0451 29.9212 11.2726 30 11.5 30C11.7274 30 11.9549 29.9213 12.1376 29.7638C12.581 29.3775 23 20.21 23 11.3312C23 5.0825 17.8403 0 11.5 0ZM11.5 17.5C7.97717 17.5 5.11111 14.6962 5.11111 11.25C5.11111 7.80375 7.97717 5 11.5 5C15.0228 5 17.8889 7.80375 17.8889 11.25C17.8889 14.6962 15.0228 17.5 11.5 17.5Z" fill="#B48F72"/>
</svg>
